<?xml version="1.0" encoding="UTF-8" standalone="no"?>
<!-- Creator: fig2dev Version 3.2 Patchlevel 5d -->

<!-- CreationDate: Thu Jan 26 15:28:19 2012 -->

<!-- Magnification: 1.050 -->

<svg
   xmlns:dc="http://purl.org/dc/elements/1.1/"
   xmlns:cc="http://creativecommons.org/ns#"
   xmlns:rdf="http://www.w3.org/1999/02/22-rdf-syntax-ns#"
   xmlns:svg="http://www.w3.org/2000/svg"
   xmlns="http://www.w3.org/2000/svg"
   xmlns:sodipodi="http://sodipodi.sourceforge.net/DTD/sodipodi-0.dtd"
   xmlns:inkscape="http://www.inkscape.org/namespaces/inkscape"
   width="6.0in"
   height="1.5in"
   viewBox="1912 1690 7159 1780"
   id="svg3133"
   version="1.1"
   inkscape:version="0.48.2 r9819"
   sodipodi:docname="facet.svg">
  <metadata
     id="metadata3249">
    <rdf:RDF>
      <cc:Work
         rdf:about="">
        <dc:format>image/svg+xml</dc:format>
        <dc:type
           rdf:resource="http://purl.org/dc/dcmitype/StillImage" />
        <dc:title></dc:title>
      </cc:Work>
    </rdf:RDF>
  </metadata>
  <defs
     id="defs3247" />
  <sodipodi:namedview
     pagecolor="#ffffff"
     bordercolor="#666666"
     borderopacity="1"
     objecttolerance="10"
     gridtolerance="10"
     guidetolerance="10"
     inkscape:pageopacity="0"
     inkscape:pageshadow="2"
     inkscape:window-width="960"
     inkscape:window-height="1056"
     id="namedview3245"
     showgrid="false"
     inkscape:zoom="2.7865245"
     inkscape:cx="130.55217"
     inkscape:cy="122.75403"
     inkscape:window-x="0"
     inkscape:window-y="24"
     inkscape:window-maximized="0"
     inkscape:current-layer="svg3133" />
  <g
     style="stroke-width:.025in; fill:none"
     id="g3135">
    <!-- Line -->
    <polygon
       points="5118,3126 5140,3110 5163,3093 5186,3076 5210,3057 5235,3036 5261,3014 5289,2991 5316,2966 5343,2941 5373,2914 5402,2887 5432,2857 5461,2828 5491,2797 5522,2766 5551,2734 5582,2702 5611,2669 5640,2637 5669,2604 5697,2572 5723,2539 5750,2508 5775,2476 5799,2446 5822,2415 5844,2386 5864,2358 5884,2329 5902,2303 5918,2277 5933,2251 5947,2227 5961,2204 5969,2186 5979,2169 5986,2151 5993,2134 6000,2117 6005,2101 6009,2086 6013,2071 6016,2056 6018,2043 6019,2029 6020,2016 6019,2004 6018,1992 6017,1981 6014,1971 6011,1961 6007,1952 6002,1944 5995,1937 5989,1930 5982,1924 5973,1920 5965,1916 5955,1912 5945,1910 5934,1909 5923,1908 5911,1908 5899,1910 5885,1912 5872,1916 5858,1919 5844,1924 5829,1929 5815,1935 5799,1943 5783,1951 5766,1960 5751,1970 5733,1981 5716,1992 5694,2007 5671,2024 5648,2041 5624,2061 5598,2082 5573,2104 5547,2128 5520,2153 5492,2179 5464,2206 5436,2235 5406,2264 5377,2295 5348,2326 5318,2358 5289,2390 5260,2424 5231,2456 5203,2490 5174,2523 5148,2556 5121,2590 5096,2622 5071,2654 5047,2685 5025,2716 5004,2746 4984,2774 4965,2803 4948,2830 4931,2856 4916,2881 4902,2906 4890,2929 4880,2946 4871,2964 4864,2982 4856,2999 4850,3015 4845,3030 4839,3046 4835,3061 4832,3075 4829,3088 4827,3101 4826,3113 4826,3126 4827,3137 4828,3147 4830,3158 4833,3166 4836,3174 4841,3183 4847,3189 4853,3195 4859,3201 4867,3205 4875,3208 4885,3210 4894,3212 4904,3213 4915,3213 4927,3212 4938,3210 4951,3208 4963,3204 4977,3200 4992,3194 5005,3189 5020,3183 5036,3174 5051,3167 5067,3158 5083,3148 5101,3137 5118,3126 "
       style="stroke:#000000;stroke-width:8; stroke-linejoin:bevel; stroke-linecap:butt; fill:#87cfff; "
       id="polygon3137" />
    <!-- Line -->
    <polygon
       points="7858,3126 7880,3110 7903,3093 7926,3076 7950,3057 7975,3036 8002,3014 8029,2991 8056,2966 8083,2941 8113,2914 8142,2887 8172,2857 8201,2828 8232,2797 8262,2766 8291,2734 8322,2702 8351,2669 8381,2637 8409,2604 8437,2572 8464,2539 8490,2508 8515,2476 8539,2446 8562,2415 8584,2386 8604,2358 8624,2329 8642,2303 8658,2277 8674,2251 8687,2227 8701,2204 8709,2186 8719,2169 8726,2151 8733,2134 8740,2117 8745,2101 8749,2086 8753,2071 8756,2056 8759,2043 8760,2029 8761,2016 8760,2004 8759,1992 8758,1981 8754,1971 8751,1961 8747,1952 8742,1944 8735,1937 8729,1930 8722,1924 8713,1920 8705,1916 8696,1912 8685,1910 8675,1909 8663,1908 8651,1908 8639,1910 8625,1912 8613,1916 8598,1919 8584,1924 8570,1929 8555,1935 8539,1943 8523,1951 8507,1960 8491,1970 8473,1981 8456,1992 8434,2007 8411,2024 8388,2041 8364,2061 8339,2082 8313,2104 8287,2128 8260,2153 8233,2179 8204,2206 8176,2235 8146,2264 8117,2295 8088,2326 8058,2358 8029,2390 8001,2424 7971,2456 7943,2490 7914,2523 7888,2556 7861,2590 7836,2622 7812,2654 7787,2685 7765,2716 7744,2746 7724,2774 7706,2803 7688,2830 7671,2856 7656,2881 7643,2906 7630,2929 7620,2946 7611,2964 7604,2982 7596,2999 7590,3015 7585,3030 7580,3046 7575,3061 7572,3075 7569,3088 7567,3101 7566,3113 7566,3126 7567,3137 7568,3147 7570,3158 7573,3166 7576,3174 7582,3183 7587,3189 7593,3195 7600,3201 7607,3205 7615,3208 7625,3210 7634,3212 7645,3213 7655,3213 7667,3212 7678,3210 7691,3208 7703,3204 7717,3200 7732,3194 7745,3189 7760,3183 7776,3174 7792,3167 7807,3158 7823,3148 7841,3137 7858,3126 "
       style="stroke:#000000;stroke-width:8; stroke-linejoin:bevel; stroke-linecap:butt; fill:#87cfff; "
       id="polygon3139" />
    <!-- Line -->
    <polygon
       points="2425,3126 2447,3110 2470,3093 2493,3076 2517,3057 2542,3036 2569,3014 2596,2991 2623,2966 2650,2941 2680,2914 2709,2887 2739,2857 2768,2828 2798,2797 2829,2766 2858,2734 2889,2702 2918,2669 2948,2637 2976,2604 3004,2572 3030,2539 3057,2508 3082,2476 3106,2446 3129,2415 3151,2386 3171,2358 3191,2329 3209,2303 3225,2277 3240,2251 3254,2227 3268,2204 3276,2186 3286,2169 3293,2151 3300,2134 3307,2117 3312,2101 3316,2086 3320,2071 3323,2056 3325,2043 3327,2029 3328,2016 3327,2004 3325,1992 3324,1981 3321,1971 3318,1961 3314,1952 3309,1944 3302,1937 3296,1930 3289,1924 3280,1920 3272,1916 3262,1912 3252,1910 3241,1909 3230,1908 3218,1908 3206,1910 3192,1912 3180,1916 3165,1919 3151,1924 3137,1929 3122,1935 3106,1943 3090,1951 3074,1960 3058,1970 3040,1981 3023,1992 3001,2007 2978,2024 2955,2041 2931,2061 2906,2082 2880,2104 2854,2128 2827,2153 2800,2179 2771,2206 2743,2235 2713,2264 2684,2295 2655,2326 2625,2358 2596,2390 2567,2424 2538,2456 2510,2490 2481,2523 2455,2556 2428,2590 2403,2622 2379,2654 2354,2685 2332,2716 2311,2746 2291,2774 2272,2803 2255,2830 2238,2856 2223,2881 2209,2906 2197,2929 2187,2946 2178,2964 2171,2982 2163,2999 2157,3015 2152,3030 2146,3046 2142,3061 2139,3075 2136,3088 2134,3101 2133,3113 2133,3126 2134,3137 2135,3147 2137,3158 2140,3166 2143,3174 2149,3183 2154,3189 2160,3195 2166,3201 2174,3205 2182,3208 2192,3210 2201,3212 2212,3213 2222,3213 2234,3212 2245,3210 2258,3208 2270,3204 2284,3200 2299,3194 2312,3189 2327,3183 2343,3174 2359,3167 2374,3158 2390,3148 2408,3137 2425,3126 "
       style="stroke:#000000;stroke-width:8; stroke-linejoin:bevel; stroke-linecap:butt; fill:#87cfff; "
       id="polygon3141" />
    <!-- Circle -->
    <circle
       cx="1964"
       cy="1741"
       r="43"
       style="fill:#000000;stroke:#000000;stroke-width:8;"
       id="circle3143" />
    <!-- Circle -->
    <circle
       cx="3608"
       cy="3299"
       r="43"
       style="fill:#000000;stroke:#000000;stroke-width:8;"
       id="circle3145" />
    <!-- Circle -->
    <circle
       cx="4646"
       cy="1741"
       r="43"
       style="fill:#000000;stroke:#000000;stroke-width:8;"
       id="circle3147" />
    <!-- Circle -->
    <circle
       cx="4906"
       cy="3126"
       r="43"
       style="fill:#000000;stroke:#000000;stroke-width:8;"
       id="circle3149" />
    <!-- Circle -->
    <circle
       cx="5901"
       cy="2001"
       r="43"
       style="fill:#000000;stroke:#000000;stroke-width:8;"
       id="circle3151" />
    <!-- Circle -->
    <circle
       cx="6290"
       cy="3299"
       r="43"
       style="fill:#000000;stroke:#000000;stroke-width:8;"
       id="circle3153" />
    <!-- Circle -->
    <circle
       cx="5257"
       cy="1868"
       r="43"
       style="fill:#000000;stroke:#000000;stroke-width:8;"
       id="circle3155" />
    <!-- Circle -->
    <circle
       cx="4766"
       cy="2382"
       r="43"
       style="fill:#000000;stroke:#000000;stroke-width:8;"
       id="circle3157" />
    <!-- Circle -->
    <circle
       cx="5390"
       cy="2577"
       r="43"
       style="fill:#000000;stroke:#000000;stroke-width:8;"
       id="circle3159" />
    <!-- Circle -->
    <circle
       cx="6100"
       cy="2671"
       r="43"
       style="fill:#000000;stroke:#000000;stroke-width:8;"
       id="circle3161" />
    <!-- Circle -->
    <circle
       cx="5592"
       cy="3213"
       r="43"
       style="fill:#000000;stroke:#000000;stroke-width:8;"
       id="circle3163" />
    <!-- Circle -->
    <circle
       cx="7495"
       cy="1822"
       r="43"
       style="fill:#000000;stroke:#000000;stroke-width:8;"
       id="circle3165" />
    <!-- Circle -->
    <circle
       cx="8528"
       cy="2043"
       r="43"
       style="fill:#000000;stroke:#000000;stroke-width:8;"
       id="circle3167" />
    <!-- Circle -->
    <circle
       cx="8639"
       cy="2154"
       r="43"
       style="fill:#000000;stroke:#000000;stroke-width:8;"
       id="circle3169" />
    <!-- Circle -->
    <circle
       cx="8969"
       cy="3222"
       r="43"
       style="fill:#000000;stroke:#000000;stroke-width:8;"
       id="circle3171" />
    <!-- Circle -->
    <circle
       cx="7718"
       cy="2972"
       r="43"
       style="fill:#000000;stroke:#000000;stroke-width:8;"
       id="circle3173" />
    <!-- Circle -->
    <circle
       cx="7821"
       cy="3077"
       r="43"
       style="fill:#000000;stroke:#000000;stroke-width:8;"
       id="circle3175" />
    <!-- Circle -->
    <circle
       cx="2223"
       cy="3126"
       r="43"
       style="fill:#000000;stroke:#000000;stroke-width:8;"
       id="circle3177" />
    <!-- Circle -->
    <circle
       cx="3218"
       cy="2001"
       r="43"
       style="fill:#000000;stroke:#000000;stroke-width:8;"
       id="circle3179" />
    <!-- Line -->
    <polyline
       points="1964,1741 2223,3126 3218,2001 3608,3299 2223,3126 "
       style="stroke:#000000;stroke-width:8; stroke-linejoin:round; stroke-linecap:butt; "
       id="polyline3181" />
    <!-- Line -->
    <polyline
       points="1964,1741 3218,2001 "
       style="stroke:#000000;stroke-width:8; stroke-linejoin:round; stroke-linecap:butt; "
       id="polyline3183" />
    <!-- Line -->
    <polyline
       points="4646,1741 4906,3126 5901,2001 6290,3299 4906,3126 "
       style="stroke:#000000;stroke-width:8; stroke-linejoin:round; stroke-linecap:butt; "
       id="polyline3185" />
    <!-- Line -->
    <polyline
       points="4646,1741 5901,2001 "
       style="stroke:#000000;stroke-width:8; stroke-linejoin:round; stroke-linecap:butt; "
       id="polyline3187" />
    <!-- Line -->
    <polyline
       points="7415,1741 7674,3126 8669,2001 9059,3299 7674,3126 "
       style="stroke:#000000;stroke-width:8; stroke-linejoin:round; stroke-linecap:butt; "
       id="polyline3189" />
    <!-- Line -->
    <polyline
       points="7415,1741 8669,2001 "
       style="stroke:#000000;stroke-width:8; stroke-linejoin:round; stroke-linecap:butt; "
       id="polyline3191" />
    <!-- Text -->
    <text
       xml:space="preserve"
       x="3690"
       y="3455"
       font-style="normal"
       font-weight="normal"
       font-size="139"
       id="text3193"
       text-anchor="start"
       font-family="Times"
       fill="#000000">4</text>
    <!-- Text -->
    <text
       xml:space="preserve"
       x="2338"
       y="3134"
       font-style="normal"
       font-weight="normal"
       font-size="139"
       id="text3195"
       text-anchor="start"
       font-family="Times"
       fill="#000000">3</text>
    <!-- Text -->
    <text
       xml:space="preserve"
       x="2428"
       y="2346"
       font-style="normal"
       font-weight="normal"
       font-size="139"
       id="text3197"
       text-anchor="start"
       font-family="Times"
       fill="#000000">e<tspan
   font-size="93"
   dy="36"
   id="tspan3199">1</tspan><tspan
   dy="-36"
   id="tspan3201" /></text>
    <!-- Text -->
    <text
       xml:space="preserve"
       x="2928"
       y="2961"
       font-style="normal"
       font-weight="normal"
       font-size="139"
       id="text3203"
       text-anchor="start"
       font-family="Times"
       fill="#000000">e<tspan
   font-size="93"
   dy="36"
   id="tspan3205">2</tspan><tspan
   dy="-36"
   id="tspan3207" /></text>
    <!-- Text -->
    <text
       xml:space="preserve"
       x="2050"
       y="1954"
       font-style="normal"
       font-weight="normal"
       font-size="139"
       id="text3209"
       text-anchor="start"
       font-family="Times"
       fill="#000000">1</text>
    <!-- Text -->
    <text
       xml:space="preserve"
       x="4703"
       y="1930"
       font-style="normal"
       font-weight="normal"
       font-size="139"
       id="text3211"
       text-anchor="start"
       font-family="Times"
       fill="#000000">1</text>
    <!-- Text -->
    <text
       xml:space="preserve"
       x="4813"
       y="2340"
       font-style="normal"
       font-weight="normal"
       font-size="139"
       id="text3213"
       text-anchor="start"
       font-family="Times"
       fill="#000000">2</text>
    <!-- Text -->
    <text
       xml:space="preserve"
       x="5235"
       y="2083"
       font-style="normal"
       font-weight="normal"
       font-size="139"
       id="text3215"
       text-anchor="start"
       font-family="Times"
       fill="#000000">3</text>
    <!-- Text -->
    <text
       xml:space="preserve"
       x="5697"
       y="2128"
       font-style="normal"
       font-weight="normal"
       font-size="139"
       id="text3217"
       text-anchor="start"
       font-family="Times"
       fill="#000000">6</text>
    <!-- Text -->
    <text
       xml:space="preserve"
       x="4901"
       y="3019"
       font-style="normal"
       font-weight="normal"
       font-size="139"
       id="text3219"
       text-anchor="start"
       font-family="Times"
       fill="#000000">4</text>
    <!-- Text -->
    <text
       xml:space="preserve"
       x="5594"
       y="3147"
       font-style="normal"
       font-weight="normal"
       font-size="139"
       id="text3221"
       text-anchor="start"
       font-family="Times"
       fill="#000000">7</text>
    <!-- Text -->
    <text
       xml:space="preserve"
       x="5934"
       y="2814"
       font-style="normal"
       font-weight="normal"
       font-size="139"
       id="text3223"
       text-anchor="start"
       font-family="Times"
       fill="#000000">8</text>
    <!-- Text -->
    <text
       xml:space="preserve"
       x="6370"
       y="3442"
       font-style="normal"
       font-weight="normal"
       font-size="139"
       id="text3225"
       text-anchor="start"
       font-family="Times"
       fill="#000000">9</text>
    <!-- Text -->
    <text
       xml:space="preserve"
       x="7748"
       y="2916"
       font-style="normal"
       font-weight="normal"
       font-size="139"
       id="text3227"
       text-anchor="start"
       font-family="Times"
       fill="#000000">3</text>
    <!-- Text -->
    <text
       xml:space="preserve"
       x="8382"
       y="2205"
       font-style="normal"
       font-weight="normal"
       font-size="139"
       id="text3229"
       text-anchor="start"
       font-family="Times"
       fill="#000000">2</text>
    <!-- Text -->
    <text
       xml:space="preserve"
       x="8857"
       y="3173"
       font-style="normal"
       font-weight="normal"
       font-size="139"
       id="text3231"
       text-anchor="start"
       font-family="Times"
       fill="#000000">6</text>
    <!-- Text -->
    <text
       xml:space="preserve"
       x="2665"
       y="2737"
       font-style="normal"
       font-weight="normal"
       font-size="139"
       id="text3233"
       text-anchor="start"
       font-family="Times"
       fill="#000000">f</text>
    <!-- Text -->
    <text
       xml:space="preserve"
       x="7569"
       y="1981"
       font-style="normal"
       font-weight="normal"
       font-size="139"
       id="text3235"
       text-anchor="start"
       font-family="Times"
       fill="#000000">1</text>
    <!-- Text -->
    <text
       xml:space="preserve"
       x="5291"
       y="2503"
       font-style="normal"
       font-weight="normal"
       font-size="139"
       id="text3237"
       text-anchor="start"
       font-family="Times"
       fill="#000000">5</text>
    <!-- Text -->
    <text
       xml:space="preserve"
       x="8503"
       y="2362"
       font-style="normal"
       font-weight="normal"
       font-size="139"
       id="text3239"
       text-anchor="start"
       font-family="Times"
       fill="#000000">5</text>
    <!-- Text -->
    <text
       xml:space="preserve"
       x="7889"
       y="3023"
       font-style="normal"
       font-weight="normal"
       font-size="139"
       id="text3241"
       text-anchor="start"
       font-family="Times"
       fill="#000000">4</text>
    <!-- Text -->
    <text
       xml:space="preserve"
       x="3354"
       y="1937"
       font-style="normal"
       font-weight="normal"
       font-size="139"
       id="text3243"
       text-anchor="start"
       font-family="Times"
       fill="#000000">2</text>
  </g>
</svg>
